<svg fill="#fef100" xmlns="http://www.w3.org/2000/svg" xmlns:xlink="http://www.w3.org/1999/xlink" version="1.1" style="" xml:space="preserve" width="469" height="470"><rect id="backgroundrect" width="520.02294921875" height="297.5294494628906" x="-14.406780242919922" y="-1.6949152946472168" fill="none" stroke="none" class="" style=""/>

<g class="currentLayer" style=""><title>Layer 1</title><g id="svg_1" class="">
	<g id="svg_2">
		<g id="svg_3">
			<rect x="128" y="128" width="85.33300018310547" height="85.33300018310547" id="svg_4"/>
			<rect x="0" y="0" width="85.33300018310547" height="85.33300018310547" id="svg_5"/>
			<rect x="128" y="256" width="85.33300018310547" height="85.33300018310547" id="svg_6"/>
			<rect x="0" y="128" width="85.33300018310547" height="85.33300018310547" id="svg_7"/>
			<rect x="0" y="256" width="85.33300018310547" height="85.33300018310547" id="svg_8"/>
			<rect x="256" y="0" width="85.33300018310547" height="85.33300018310547" id="svg_9"/>
			<rect x="128" y="0" width="85.33300018310547" height="85.33300018310547" id="svg_10"/>
			<rect x="256" y="128" width="85.33300018310547" height="85.33300018310547" id="svg_11"/>
			<rect x="256" y="256" width="85.33300018310547" height="85.33300018310547" id="svg_12"/>
		</g>
	</g>
</g><g class="" id="svg_29">
	<g id="svg_32">
		<g id="svg_3" transform="">
			<rect x="129.01695251464844" y="256.135586977005" width="85.33300018310547" height="85.33300018310547" id="svg_4" transform=""/>
			<rect x="1.0169496536254883" y="128.135586977005" width="85.33300018310547" height="85.33300018310547" id="svg_5" transform=""/>
			<rect x="129.01695251464844" y="384.135586977005" width="85.33300018310547" height="85.33300018310547" id="svg_6" transform=""/>
			<rect x="1.0169496536254883" y="256.135586977005" width="85.33300018310547" height="85.33300018310547" id="svg_7" transform=""/>
			<rect x="1.0169496536254883" y="384.135586977005" width="85.33300018310547" height="85.33300018310547" id="svg_8" transform=""/>
			<rect x="257.0169372558594" y="128.135586977005" width="85.33300018310547" height="85.33300018310547" id="svg_9" transform=""/>
			<rect x="129.01695251464844" y="128.135586977005" width="85.33300018310547" height="85.33300018310547" id="svg_10" transform=""/>
			<rect x="257.0169372558594" y="256.135586977005" width="85.33300018310547" height="85.33300018310547" id="svg_11" transform=""/>
			<rect x="257.0169372558594" y="384.135586977005" width="85.33300018310547" height="85.33300018310547" id="svg_12" transform=""/>
		</g>
	</g>
</g><g class="" id="svg_34">
	<g id="svg_36">
		<g id="svg_3">
			<rect x="256.1355895996094" y="256.98302960395813" width="85.33300018310547" height="85.33300018310547" id="svg_4"/>
			<rect x="128.13558959960938" y="128.98306012153625" width="85.33300018310547" height="85.33300018310547" id="svg_5"/>
			<rect x="256.1355895996094" y="384.98306012153625" width="85.33300018310547" height="85.33300018310547" id="svg_6"/>
			<rect x="128.13558959960938" y="256.98302960395813" width="85.33300018310547" height="85.33300018310547" id="svg_7"/>
			<rect x="128.13558959960938" y="384.98306012153625" width="85.33300018310547" height="85.33300018310547" id="svg_8"/>
			<rect x="384.1355895996094" y="128.98306012153625" width="85.33300018310547" height="85.33300018310547" id="svg_9"/>
			<rect x="256.1355895996094" y="128.98306012153625" width="85.33300018310547" height="85.33300018310547" id="svg_10"/>
			<rect x="384.1355895996094" y="256.98302960395813" width="85.33300018310547" height="85.33300018310547" id="svg_11"/>
			<rect x="384.1355895996094" y="384.98306012153625" width="85.33300018310547" height="85.33300018310547" id="svg_12"/>
		</g>
	</g>
</g><g class="" id="svg_28">
	<g id="svg_30">
		<g id="svg_3">
			<rect x="255.6271209716797" y="128.5084686279297" width="85.33300018310547" height="85.33300018310547" id="svg_4"/>
			<rect x="127.62711334228516" y="0.5084762573242188" width="85.33300018310547" height="85.33300018310547" id="svg_5"/>
			<rect x="255.6271209716797" y="256.50848388671875" width="85.33300018310547" height="85.33300018310547" id="svg_6"/>
			<rect x="127.62711334228516" y="128.5084686279297" width="85.33300018310547" height="85.33300018310547" id="svg_7"/>
			<rect x="127.62711334228516" y="256.50848388671875" width="85.33300018310547" height="85.33300018310547" id="svg_8"/>
			<rect x="383.62713623046875" y="0.5084762573242188" width="85.33300018310547" height="85.33300018310547" id="svg_9"/>
			<rect x="255.6271209716797" y="0.5084762573242188" width="85.33300018310547" height="85.33300018310547" id="svg_10"/>
			<rect x="383.62713623046875" y="128.5084686279297" width="85.33300018310547" height="85.33300018310547" id="svg_11"/>
			<rect x="383.62713623046875" y="256.50848388671875" width="85.33300018310547" height="85.33300018310547" id="svg_12"/>
		</g>
	</g>
</g><g id="svg_13" class="">
</g><g id="svg_14" class="">
</g><g id="svg_15" class="">
</g><g id="svg_16" class="">
</g><g id="svg_17" class="">
</g><g id="svg_18" class="">
</g><g id="svg_19" class="">
</g><g id="svg_20" class="">
</g><g id="svg_21" class="">
</g><g id="svg_22" class="">
</g><g id="svg_23" class="">
</g><g id="svg_24" class="">
</g><g id="svg_25" class="">
</g><g id="svg_26" class="">
</g><g id="svg_27" class="">
</g></g></svg>